<svg xmlns="http://www.w3.org/2000/svg" xmlns:xlink="http://www.w3.org/1999/xlink" width="500" zoomAndPan="magnify" viewBox="0 0 375 374.999991" height="500" preserveAspectRatio="xMidYMid meet" version="1.0"><defs><clipPath id="3af87c3ef1"><path d="M 230 105 L 272 105 L 272 150 L 230 150 Z M 230 105 " clip-rule="nonzero"/></clipPath><clipPath id="57173a25b7"><path d="M 57.175781 118.175781 L 289.714844 72.402344 L 326.070312 257.109375 L 93.53125 302.882812 Z M 57.175781 118.175781 " clip-rule="nonzero"/></clipPath><clipPath id="6a94782b68"><path d="M 57.175781 118.175781 L 289.714844 72.402344 L 326.070312 257.109375 L 93.53125 302.882812 Z M 57.175781 118.175781 " clip-rule="nonzero"/></clipPath><clipPath id="3da33b35a0"><path d="M 205 80 L 299 80 L 299 174 L 205 174 Z M 205 80 " clip-rule="nonzero"/></clipPath><clipPath id="9ed74300f8"><path d="M 57.175781 118.175781 L 289.714844 72.402344 L 326.070312 257.109375 L 93.53125 302.882812 Z M 57.175781 118.175781 " clip-rule="nonzero"/></clipPath><clipPath id="fb80a25142"><path d="M 57.175781 118.175781 L 289.714844 72.402344 L 326.070312 257.109375 L 93.53125 302.882812 Z M 57.175781 118.175781 " clip-rule="nonzero"/></clipPath><clipPath id="e7ff20ba6e"><path d="M 106 122 L 210 122 L 210 149 L 106 149 Z M 106 122 " clip-rule="nonzero"/></clipPath><clipPath id="0769348a96"><path d="M 57.175781 118.175781 L 289.714844 72.402344 L 326.070312 257.109375 L 93.53125 302.882812 Z M 57.175781 118.175781 " clip-rule="nonzero"/></clipPath><clipPath id="2fb9f9371c"><path d="M 57.175781 118.175781 L 289.714844 72.402344 L 326.070312 257.109375 L 93.53125 302.882812 Z M 57.175781 118.175781 " clip-rule="nonzero"/></clipPath><clipPath id="9a2097b3b6"><path d="M 145 167 L 270 167 L 270 226 L 145 226 Z M 145 167 " clip-rule="nonzero"/></clipPath><clipPath id="8a8aa6ca5c"><path d="M 57.175781 118.175781 L 289.714844 72.402344 L 326.070312 257.109375 L 93.53125 302.882812 Z M 57.175781 118.175781 " clip-rule="nonzero"/></clipPath><clipPath id="1b56066b9d"><path d="M 57.175781 118.175781 L 289.714844 72.402344 L 326.070312 257.109375 L 93.53125 302.882812 Z M 57.175781 118.175781 " clip-rule="nonzero"/></clipPath><clipPath id="eaa04a4e2e"><path d="M 58 116 L 262 116 L 262 243 L 58 243 Z M 58 116 " clip-rule="nonzero"/></clipPath><clipPath id="62de8df3a8"><path d="M 57.175781 118.175781 L 289.714844 72.402344 L 326.070312 257.109375 L 93.53125 302.882812 Z M 57.175781 118.175781 " clip-rule="nonzero"/></clipPath><clipPath id="a72c473a04"><path d="M 57.175781 118.175781 L 289.714844 72.402344 L 326.070312 257.109375 L 93.53125 302.882812 Z M 57.175781 118.175781 " clip-rule="nonzero"/></clipPath><clipPath id="f2cf6f2d9c"><path d="M 163 248 L 201 248 L 201 286 L 163 286 Z M 163 248 " clip-rule="nonzero"/></clipPath><clipPath id="a77d18716d"><path d="M 57.175781 118.175781 L 289.714844 72.402344 L 326.070312 257.109375 L 93.53125 302.882812 Z M 57.175781 118.175781 " clip-rule="nonzero"/></clipPath><clipPath id="5baa25c1e6"><path d="M 57.175781 118.175781 L 289.714844 72.402344 L 326.070312 257.109375 L 93.53125 302.882812 Z M 57.175781 118.175781 " clip-rule="nonzero"/></clipPath><clipPath id="4c8177a88a"><path d="M 229 235 L 267 235 L 267 273 L 229 273 Z M 229 235 " clip-rule="nonzero"/></clipPath><clipPath id="b7bcd33e9b"><path d="M 57.175781 118.175781 L 289.714844 72.402344 L 326.070312 257.109375 L 93.53125 302.882812 Z M 57.175781 118.175781 " clip-rule="nonzero"/></clipPath><clipPath id="d097e7da5b"><path d="M 57.175781 118.175781 L 289.714844 72.402344 L 326.070312 257.109375 L 93.53125 302.882812 Z M 57.175781 118.175781 " clip-rule="nonzero"/></clipPath></defs><g clip-path="url(#3af87c3ef1)"><g clip-path="url(#57173a25b7)"><g clip-path="url(#6a94782b68)"><path fill="#f39800" d="M 248.753906 149.730469 L 230.894531 135.804688 L 234.875 130.6875 L 246.726562 139.9375 L 265.683594 105.273438 L 271.359375 108.386719 L 248.753906 149.730469 " fill-opacity="1" fill-rule="nonzero"/></g></g></g><g clip-path="url(#3da33b35a0)"><g clip-path="url(#9ed74300f8)"><g clip-path="url(#fb80a25142)"><path fill="#f39800" d="M 244.398438 88.039062 C 222.917969 92.265625 208.875 113.191406 213.109375 134.703125 C 217.339844 156.199219 238.265625 170.242188 259.746094 166.011719 C 281.226562 161.785156 295.269531 140.859375 291.039062 119.363281 C 286.804688 97.851562 265.878906 83.808594 244.398438 88.039062 Z M 260.996094 172.371094 C 236.019531 177.289062 211.675781 160.949219 206.753906 135.953125 C 201.832031 110.941406 218.164062 86.597656 243.144531 81.679688 C 268.136719 76.761719 292.46875 93.101562 297.390625 118.109375 C 302.3125 143.109375 285.988281 167.453125 260.996094 172.371094 " fill-opacity="1" fill-rule="nonzero"/></g></g></g><g clip-path="url(#e7ff20ba6e)"><g clip-path="url(#0769348a96)"><g clip-path="url(#2fb9f9371c)"><path fill="#f39800" d="M 209.78125 128.46875 L 107.75 148.550781 L 106.5 142.195312 L 208.527344 122.109375 L 209.78125 128.46875 " fill-opacity="1" fill-rule="nonzero"/></g></g></g><g clip-path="url(#9a2097b3b6)"><g clip-path="url(#8a8aa6ca5c)"><g clip-path="url(#1b56066b9d)"><path fill="#f39800" d="M 266.851562 201.90625 L 147.0625 225.484375 L 145.8125 219.128906 L 260.722656 196.507812 L 262.667969 167.5 L 269.121094 167.933594 L 266.851562 201.90625 " fill-opacity="1" fill-rule="nonzero"/></g></g></g><g clip-path="url(#eaa04a4e2e)"><g clip-path="url(#62de8df3a8)"><g clip-path="url(#a72c473a04)"><path fill="#f39800" d="M 261.449219 223.777344 L 169.804688 241.816406 C 160.671875 243.613281 151.335938 239.078125 147.101562 230.78125 L 96.121094 130.925781 C 93.09375 124.980469 86.398438 121.730469 79.859375 123.019531 L 59.890625 126.949219 L 58.640625 120.589844 L 78.605469 116.660156 C 87.976562 114.816406 97.554688 119.472656 101.898438 127.980469 L 152.875 227.835938 C 155.796875 233.570312 162.238281 236.699219 168.554688 235.457031 L 260.199219 217.417969 L 261.449219 223.777344 " fill-opacity="1" fill-rule="nonzero"/></g></g></g><g clip-path="url(#f2cf6f2d9c)"><g clip-path="url(#a77d18716d)"><g clip-path="url(#5baa25c1e6)"><path fill="#f39800" d="M 179.777344 255.398438 C 173.371094 256.65625 169.199219 262.898438 170.457031 269.292969 C 171.71875 275.699219 177.945312 279.878906 184.347656 278.621094 C 190.738281 277.363281 194.925781 271.132812 193.664062 264.726562 C 192.40625 258.328125 186.167969 254.140625 179.777344 255.398438 Z M 185.597656 284.976562 C 175.695312 286.925781 166.054688 280.453125 164.105469 270.542969 C 162.152344 260.632812 168.621094 250.988281 178.523438 249.039062 C 188.414062 247.09375 198.066406 253.5625 200.015625 263.472656 C 201.96875 273.382812 195.488281 283.03125 185.597656 284.976562 " fill-opacity="1" fill-rule="nonzero"/></g></g></g><g clip-path="url(#4c8177a88a)"><g clip-path="url(#b7bcd33e9b)"><g clip-path="url(#d097e7da5b)"><path fill="#f39800" d="M 245.65625 242.429688 C 239.253906 243.691406 235.082031 249.929688 236.339844 256.324219 C 237.601562 262.730469 243.824219 266.914062 250.226562 265.652344 C 256.617188 264.394531 260.804688 258.164062 259.542969 251.757812 C 258.285156 245.359375 252.046875 241.171875 245.65625 242.429688 Z M 251.480469 272.011719 C 241.578125 273.960938 231.9375 267.484375 229.984375 257.574219 C 228.035156 247.664062 234.503906 238.019531 244.40625 236.070312 C 254.308594 234.121094 263.949219 240.597656 265.898438 250.507812 C 267.847656 260.414062 261.382812 270.0625 251.480469 272.011719 " fill-opacity="1" fill-rule="nonzero"/></g></g></g><path stroke-linecap="butt" transform="matrix(0.74803, 0, 0, 0.75, 82.719997, 252.3405)" fill="none" stroke-linejoin="miter" d="M -0.00166767 3.999125 L 89.23794 3.999125 " stroke="#f39800" stroke-width="8" stroke-opacity="1" stroke-miterlimit="4"/><path stroke-linecap="butt" transform="matrix(0.74803, 0, 0, 0.75, 49.256581, 273.616096)" fill="none" stroke-linejoin="miter" d="M 0.00164597 4.001456 L 89.236031 4.001456 " stroke="#f39800" stroke-width="8" stroke-opacity="1" stroke-miterlimit="4"/></svg>