<svg xmlns="http://www.w3.org/2000/svg" xmlns:xlink="http://www.w3.org/1999/xlink" width="500" zoomAndPan="magnify" viewBox="0 0 375 374.999991" height="500" preserveAspectRatio="xMidYMid meet" version="1.0"><defs><g/><clipPath id="b85d4aa779"><path d="M 186.875 93.667969 L 237.875 93.667969 L 237.875 119.167969 L 186.875 119.167969 Z M 186.875 93.667969 " clip-rule="nonzero"/></clipPath><clipPath id="2a171b3f9e"><path d="M 187 117.679688 L 238 117.679688 L 238 131 L 187 131 Z M 187 117.679688 " clip-rule="nonzero"/></clipPath><clipPath id="1909fc9029"><path d="M 163 117.679688 L 262 117.679688 L 262 211.429688 L 163 211.429688 Z M 163 117.679688 " clip-rule="nonzero"/></clipPath><clipPath id="9c461d89fb"><path d="M 136.773438 106.335938 L 187.773438 106.335938 L 187.773438 131.835938 L 136.773438 131.835938 Z M 136.773438 106.335938 " clip-rule="nonzero"/></clipPath><clipPath id="b2236344d7"><path d="M 137 130.34375 L 188 130.34375 L 188 143 L 137 143 Z M 137 130.34375 " clip-rule="nonzero"/></clipPath><clipPath id="ee3fce781c"><path d="M 113 130.34375 L 212 130.34375 L 212 224.09375 L 113 224.09375 Z M 113 130.34375 " clip-rule="nonzero"/></clipPath></defs><g fill="#f39800" fill-opacity="1"><g transform="translate(67.692088, 257.387342)"><g><path d="M 5.046875 6.796875 C 2.929688 6.796875 1.875 5.71875 1.875 3.5625 L 1.875 -14.828125 C 1.875 -16.960938 2.914062 -18.03125 5 -18.03125 C 6.894531 -18.03125 7.941406 -17.144531 8.140625 -15.375 C 8.617188 -16.207031 9.34375 -16.867188 10.3125 -17.359375 C 11.28125 -17.859375 12.351562 -18.109375 13.53125 -18.109375 C 15.039062 -18.109375 16.378906 -17.734375 17.546875 -16.984375 C 18.710938 -16.242188 19.625 -15.179688 20.28125 -13.796875 C 20.945312 -12.421875 21.28125 -10.773438 21.28125 -8.859375 C 21.28125 -6.960938 20.953125 -5.316406 20.296875 -3.921875 C 19.648438 -2.535156 18.742188 -1.46875 17.578125 -0.71875 C 16.421875 0.0195312 15.070312 0.390625 13.53125 0.390625 C 12.425781 0.390625 11.398438 0.164062 10.453125 -0.28125 C 9.503906 -0.738281 8.78125 -1.351562 8.28125 -2.125 L 8.28125 3.5625 C 8.28125 4.613281 8 5.414062 7.4375 5.96875 C 6.875 6.519531 6.078125 6.796875 5.046875 6.796875 Z M 11.515625 -4.3125 C 12.472656 -4.3125 13.265625 -4.671875 13.890625 -5.390625 C 14.515625 -6.117188 14.828125 -7.273438 14.828125 -8.859375 C 14.828125 -10.460938 14.515625 -11.617188 13.890625 -12.328125 C 13.265625 -13.035156 12.472656 -13.390625 11.515625 -13.390625 C 10.535156 -13.390625 9.734375 -13.035156 9.109375 -12.328125 C 8.484375 -11.617188 8.171875 -10.460938 8.171875 -8.859375 C 8.171875 -7.273438 8.484375 -6.117188 9.109375 -5.390625 C 9.734375 -4.671875 10.535156 -4.3125 11.515625 -4.3125 Z M 11.515625 -4.3125 "/></g></g></g><g fill="#f39800" fill-opacity="1"><g transform="translate(90.012129, 257.387342)"><g><path d="M 8.03125 0.390625 C 6.65625 0.390625 5.445312 0.140625 4.40625 -0.359375 C 3.363281 -0.859375 2.546875 -1.546875 1.953125 -2.421875 C 1.367188 -3.304688 1.078125 -4.3125 1.078125 -5.4375 C 1.078125 -6.707031 1.410156 -7.71875 2.078125 -8.46875 C 2.753906 -9.226562 3.835938 -9.769531 5.328125 -10.09375 C 6.816406 -10.414062 8.796875 -10.578125 11.265625 -10.578125 L 12.640625 -10.578125 L 12.640625 -11.09375 C 12.640625 -11.957031 12.414062 -12.566406 11.96875 -12.921875 C 11.519531 -13.285156 10.757812 -13.46875 9.6875 -13.46875 C 9.082031 -13.46875 8.425781 -13.398438 7.71875 -13.265625 C 7.007812 -13.128906 6.210938 -12.894531 5.328125 -12.5625 C 4.535156 -12.269531 3.875 -12.28125 3.34375 -12.59375 C 2.820312 -12.90625 2.484375 -13.351562 2.328125 -13.9375 C 2.171875 -14.53125 2.226562 -15.117188 2.5 -15.703125 C 2.78125 -16.296875 3.316406 -16.738281 4.109375 -17.03125 C 5.253906 -17.4375 6.3125 -17.71875 7.28125 -17.875 C 8.257812 -18.03125 9.15625 -18.109375 9.96875 -18.109375 C 12.925781 -18.109375 15.117188 -17.472656 16.546875 -16.203125 C 17.972656 -14.929688 18.6875 -12.925781 18.6875 -10.1875 L 18.6875 -2.921875 C 18.6875 -0.753906 17.703125 0.328125 15.734375 0.328125 C 13.859375 0.328125 12.863281 -0.632812 12.75 -2.5625 C 12.40625 -1.644531 11.828125 -0.921875 11.015625 -0.390625 C 10.203125 0.128906 9.207031 0.390625 8.03125 0.390625 Z M 9.46875 -3.78125 C 10.351562 -3.78125 11.101562 -4.066406 11.71875 -4.640625 C 12.332031 -5.222656 12.640625 -5.976562 12.640625 -6.90625 L 12.640625 -7.5625 L 11.265625 -7.5625 C 9.847656 -7.5625 8.804688 -7.410156 8.140625 -7.109375 C 7.484375 -6.804688 7.15625 -6.332031 7.15625 -5.6875 C 7.15625 -5.132812 7.351562 -4.675781 7.75 -4.3125 C 8.15625 -3.957031 8.726562 -3.78125 9.46875 -3.78125 Z M 9.46875 -3.78125 "/></g></g></g><g fill="#f39800" fill-opacity="1"><g transform="translate(110.460167, 257.387342)"><g><path d="M 8.03125 0.390625 C 6.65625 0.390625 5.445312 0.140625 4.40625 -0.359375 C 3.363281 -0.859375 2.546875 -1.546875 1.953125 -2.421875 C 1.367188 -3.304688 1.078125 -4.3125 1.078125 -5.4375 C 1.078125 -6.707031 1.410156 -7.71875 2.078125 -8.46875 C 2.753906 -9.226562 3.835938 -9.769531 5.328125 -10.09375 C 6.816406 -10.414062 8.796875 -10.578125 11.265625 -10.578125 L 12.640625 -10.578125 L 12.640625 -11.09375 C 12.640625 -11.957031 12.414062 -12.566406 11.96875 -12.921875 C 11.519531 -13.285156 10.757812 -13.46875 9.6875 -13.46875 C 9.082031 -13.46875 8.425781 -13.398438 7.71875 -13.265625 C 7.007812 -13.128906 6.210938 -12.894531 5.328125 -12.5625 C 4.535156 -12.269531 3.875 -12.28125 3.34375 -12.59375 C 2.820312 -12.90625 2.484375 -13.351562 2.328125 -13.9375 C 2.171875 -14.53125 2.226562 -15.117188 2.5 -15.703125 C 2.78125 -16.296875 3.316406 -16.738281 4.109375 -17.03125 C 5.253906 -17.4375 6.3125 -17.71875 7.28125 -17.875 C 8.257812 -18.03125 9.15625 -18.109375 9.96875 -18.109375 C 12.925781 -18.109375 15.117188 -17.472656 16.546875 -16.203125 C 17.972656 -14.929688 18.6875 -12.925781 18.6875 -10.1875 L 18.6875 -2.921875 C 18.6875 -0.753906 17.703125 0.328125 15.734375 0.328125 C 13.859375 0.328125 12.863281 -0.632812 12.75 -2.5625 C 12.40625 -1.644531 11.828125 -0.921875 11.015625 -0.390625 C 10.203125 0.128906 9.207031 0.390625 8.03125 0.390625 Z M 9.46875 -3.78125 C 10.351562 -3.78125 11.101562 -4.066406 11.71875 -4.640625 C 12.332031 -5.222656 12.640625 -5.976562 12.640625 -6.90625 L 12.640625 -7.5625 L 11.265625 -7.5625 C 9.847656 -7.5625 8.804688 -7.410156 8.140625 -7.109375 C 7.484375 -6.804688 7.15625 -6.332031 7.15625 -5.6875 C 7.15625 -5.132812 7.351562 -4.675781 7.75 -4.3125 C 8.15625 -3.957031 8.726562 -3.78125 9.46875 -3.78125 Z M 9.46875 -3.78125 "/></g></g></g><g fill="#f39800" fill-opacity="1"><g transform="translate(130.908206, 257.387342)"><g><path d="M 6.59375 0.328125 C 5.5625 0.328125 4.769531 0.0507812 4.21875 -0.5 C 3.664062 -1.050781 3.390625 -1.859375 3.390625 -2.921875 L 3.390625 -13 L 2.453125 -13 C 0.835938 -13 0.03125 -13.789062 0.03125 -15.375 C 0.03125 -16.9375 0.835938 -17.71875 2.453125 -17.71875 L 3.390625 -17.71875 C 3.503906 -20.132812 4.222656 -21.953125 5.546875 -23.171875 C 6.867188 -24.398438 8.800781 -25.148438 11.34375 -25.421875 L 12.390625 -25.53125 C 13.148438 -25.625 13.757812 -25.53125 14.21875 -25.25 C 14.675781 -24.976562 14.988281 -24.613281 15.15625 -24.15625 C 15.320312 -23.695312 15.363281 -23.234375 15.28125 -22.765625 C 15.195312 -22.296875 15.007812 -21.894531 14.71875 -21.5625 C 14.4375 -21.226562 14.054688 -21.035156 13.578125 -20.984375 L 13.0625 -20.953125 C 11.84375 -20.878906 10.992188 -20.617188 10.515625 -20.171875 C 10.035156 -19.734375 9.796875 -19.09375 9.796875 -18.25 L 9.796875 -17.71875 L 11.84375 -17.71875 C 13.445312 -17.71875 14.25 -16.9375 14.25 -15.375 C 14.25 -13.789062 13.445312 -13 11.84375 -13 L 9.796875 -13 L 9.796875 -2.921875 C 9.796875 -0.753906 8.726562 0.328125 6.59375 0.328125 Z M 6.59375 0.328125 "/></g></g></g><g fill="#f39800" fill-opacity="1"><g transform="translate(145.380232, 257.387342)"><g><path d="M 6.59375 0.328125 C 5.5625 0.328125 4.769531 0.0507812 4.21875 -0.5 C 3.664062 -1.050781 3.390625 -1.859375 3.390625 -2.921875 L 3.390625 -13 L 2.453125 -13 C 0.835938 -13 0.03125 -13.789062 0.03125 -15.375 C 0.03125 -16.9375 0.835938 -17.71875 2.453125 -17.71875 L 3.390625 -17.71875 C 3.503906 -20.132812 4.222656 -21.953125 5.546875 -23.171875 C 6.867188 -24.398438 8.800781 -25.148438 11.34375 -25.421875 L 12.390625 -25.53125 C 13.148438 -25.625 13.757812 -25.53125 14.21875 -25.25 C 14.675781 -24.976562 14.988281 -24.613281 15.15625 -24.15625 C 15.320312 -23.695312 15.363281 -23.234375 15.28125 -22.765625 C 15.195312 -22.296875 15.007812 -21.894531 14.71875 -21.5625 C 14.4375 -21.226562 14.054688 -21.035156 13.578125 -20.984375 L 13.0625 -20.953125 C 11.84375 -20.878906 10.992188 -20.617188 10.515625 -20.171875 C 10.035156 -19.734375 9.796875 -19.09375 9.796875 -18.25 L 9.796875 -17.71875 L 11.84375 -17.71875 C 13.445312 -17.71875 14.25 -16.9375 14.25 -15.375 C 14.25 -13.789062 13.445312 -13 11.84375 -13 L 9.796875 -13 L 9.796875 -2.921875 C 9.796875 -0.753906 8.726562 0.328125 6.59375 0.328125 Z M 6.59375 0.328125 "/></g></g></g><g fill="#f39800" fill-opacity="1"><g transform="translate(159.852258, 257.387342)"><g><path d="M 6.59375 0.328125 C 5.5625 0.328125 4.769531 0.0507812 4.21875 -0.5 C 3.664062 -1.050781 3.390625 -1.859375 3.390625 -2.921875 L 3.390625 -13 L 2.453125 -13 C 0.835938 -13 0.03125 -13.789062 0.03125 -15.375 C 0.03125 -16.9375 0.835938 -17.71875 2.453125 -17.71875 L 3.390625 -17.71875 C 3.503906 -20.132812 4.222656 -21.953125 5.546875 -23.171875 C 6.867188 -24.398438 8.800781 -25.148438 11.34375 -25.421875 L 12.390625 -25.53125 C 13.148438 -25.625 13.757812 -25.53125 14.21875 -25.25 C 14.675781 -24.976562 14.988281 -24.613281 15.15625 -24.15625 C 15.320312 -23.695312 15.363281 -23.234375 15.28125 -22.765625 C 15.195312 -22.296875 15.007812 -21.894531 14.71875 -21.5625 C 14.4375 -21.226562 14.054688 -21.035156 13.578125 -20.984375 L 13.0625 -20.953125 C 11.84375 -20.878906 10.992188 -20.617188 10.515625 -20.171875 C 10.035156 -19.734375 9.796875 -19.09375 9.796875 -18.25 L 9.796875 -17.71875 L 11.84375 -17.71875 C 13.445312 -17.71875 14.25 -16.9375 14.25 -15.375 C 14.25 -13.789062 13.445312 -13 11.84375 -13 L 9.796875 -13 L 9.796875 -2.921875 C 9.796875 -0.753906 8.726562 0.328125 6.59375 0.328125 Z M 6.59375 0.328125 "/></g></g></g><g fill="#f39800" fill-opacity="1"><g transform="translate(174.324284, 257.387342)"><g><path d="M 4.890625 0.21875 C 3.816406 0.21875 2.960938 -0.109375 2.328125 -0.765625 C 1.691406 -1.429688 1.375 -2.28125 1.375 -3.3125 C 1.375 -4.320312 1.691406 -5.148438 2.328125 -5.796875 C 2.960938 -6.441406 3.816406 -6.765625 4.890625 -6.765625 C 5.992188 -6.765625 6.859375 -6.441406 7.484375 -5.796875 C 8.109375 -5.148438 8.421875 -4.320312 8.421875 -3.3125 C 8.421875 -2.28125 8.109375 -1.429688 7.484375 -0.765625 C 6.859375 -0.109375 5.992188 0.21875 4.890625 0.21875 Z M 4.890625 0.21875 "/></g></g></g><g fill="#f39800" fill-opacity="1"><g transform="translate(184.116306, 257.387342)"><g><path d="M 11.734375 0.390625 C 10.273438 0.390625 8.769531 0.242188 7.21875 -0.046875 C 5.664062 -0.347656 4.335938 -0.773438 3.234375 -1.328125 C 2.585938 -1.640625 2.128906 -2.0625 1.859375 -2.59375 C 1.597656 -3.125 1.503906 -3.671875 1.578125 -4.234375 C 1.648438 -4.796875 1.851562 -5.296875 2.1875 -5.734375 C 2.53125 -6.179688 2.976562 -6.484375 3.53125 -6.640625 C 4.082031 -6.796875 4.707031 -6.71875 5.40625 -6.40625 C 6.3125 -5.945312 7.335938 -5.601562 8.484375 -5.375 C 9.640625 -5.15625 10.722656 -5.046875 11.734375 -5.046875 C 13.316406 -5.046875 14.425781 -5.253906 15.0625 -5.671875 C 15.695312 -6.085938 16.015625 -6.609375 16.015625 -7.234375 C 16.015625 -7.785156 15.789062 -8.226562 15.34375 -8.5625 C 14.90625 -8.90625 14.125 -9.195312 13 -9.4375 L 8.78125 -10.328125 C 4.21875 -11.316406 1.9375 -13.707031 1.9375 -17.5 C 1.9375 -19.15625 2.382812 -20.601562 3.28125 -21.84375 C 4.1875 -23.09375 5.441406 -24.0625 7.046875 -24.75 C 8.660156 -25.4375 10.535156 -25.78125 12.671875 -25.78125 C 13.921875 -25.78125 15.1875 -25.640625 16.46875 -25.359375 C 17.75 -25.085938 18.859375 -24.675781 19.796875 -24.125 C 20.515625 -23.738281 20.96875 -23.210938 21.15625 -22.546875 C 21.351562 -21.890625 21.332031 -21.25 21.09375 -20.625 C 20.851562 -20 20.425781 -19.539062 19.8125 -19.25 C 19.207031 -18.96875 18.4375 -19.019531 17.5 -19.40625 C 16.78125 -19.71875 15.988281 -19.953125 15.125 -20.109375 C 14.257812 -20.265625 13.414062 -20.34375 12.59375 -20.34375 C 11.25 -20.34375 10.21875 -20.109375 9.5 -19.640625 C 8.78125 -19.171875 8.421875 -18.5625 8.421875 -17.8125 C 8.421875 -17.289062 8.632812 -16.859375 9.0625 -16.515625 C 9.5 -16.179688 10.269531 -15.894531 11.375 -15.65625 L 15.546875 -14.765625 C 20.179688 -13.773438 22.5 -11.445312 22.5 -7.78125 C 22.5 -6.125 22.054688 -4.679688 21.171875 -3.453125 C 20.285156 -2.234375 19.035156 -1.285156 17.421875 -0.609375 C 15.816406 0.0546875 13.921875 0.390625 11.734375 0.390625 Z M 11.734375 0.390625 "/></g></g></g><g fill="#f39800" fill-opacity="1"><g transform="translate(207.552351, 257.387342)"><g><path d="M 11.59375 0.328125 C 10.539062 0.328125 9.722656 0.0390625 9.140625 -0.53125 C 8.566406 -1.113281 8.28125 -1.945312 8.28125 -3.03125 L 8.28125 -19.984375 L 2.625 -19.984375 C 0.800781 -19.984375 -0.109375 -20.882812 -0.109375 -22.6875 C -0.109375 -24.476562 0.800781 -25.375 2.625 -25.375 L 20.5625 -25.375 C 22.382812 -25.375 23.296875 -24.476562 23.296875 -22.6875 C 23.296875 -20.882812 22.382812 -19.984375 20.5625 -19.984375 L 14.90625 -19.984375 L 14.90625 -3.03125 C 14.90625 -1.945312 14.625 -1.113281 14.0625 -0.53125 C 13.5 0.0390625 12.675781 0.328125 11.59375 0.328125 Z M 11.59375 0.328125 "/></g></g></g><g fill="#f39800" fill-opacity="1"><g transform="translate(230.736397, 257.387342)"><g><path d="M 14.546875 0.390625 C 11.972656 0.390625 9.71875 -0.148438 7.78125 -1.234375 C 5.851562 -2.328125 4.347656 -3.859375 3.265625 -5.828125 C 2.191406 -7.796875 1.65625 -10.085938 1.65625 -12.703125 C 1.65625 -15.347656 2.1875 -17.644531 3.25 -19.59375 C 4.320312 -21.550781 5.828125 -23.070312 7.765625 -24.15625 C 9.710938 -25.238281 11.972656 -25.78125 14.546875 -25.78125 C 17.109375 -25.78125 19.351562 -25.238281 21.28125 -24.15625 C 23.21875 -23.070312 24.726562 -21.550781 25.8125 -19.59375 C 26.894531 -17.644531 27.4375 -15.347656 27.4375 -12.703125 C 27.4375 -10.085938 26.894531 -7.796875 25.8125 -5.828125 C 24.726562 -3.859375 23.21875 -2.328125 21.28125 -1.234375 C 19.351562 -0.148438 17.109375 0.390625 14.546875 0.390625 Z M 14.546875 -5.140625 C 16.421875 -5.140625 17.890625 -5.804688 18.953125 -7.140625 C 20.023438 -8.472656 20.5625 -10.328125 20.5625 -12.703125 C 20.5625 -15.078125 20.03125 -16.925781 18.96875 -18.25 C 17.914062 -19.570312 16.441406 -20.234375 14.546875 -20.234375 C 12.648438 -20.234375 11.171875 -19.570312 10.109375 -18.25 C 9.054688 -16.925781 8.53125 -15.078125 8.53125 -12.703125 C 8.53125 -10.328125 9.054688 -8.472656 10.109375 -7.140625 C 11.171875 -5.804688 12.648438 -5.140625 14.546875 -5.140625 Z M 14.546875 -5.140625 "/></g></g></g><g fill="#f39800" fill-opacity="1"><g transform="translate(259.788458, 257.387342)"><g><path d="M 5.609375 0.328125 C 4.554688 0.328125 3.738281 0.0390625 3.15625 -0.53125 C 2.582031 -1.113281 2.296875 -1.945312 2.296875 -3.03125 L 2.296875 -22.03125 C 2.296875 -23.113281 2.582031 -23.941406 3.15625 -24.515625 C 3.738281 -25.085938 4.570312 -25.375 5.65625 -25.375 L 14.515625 -25.375 C 17.390625 -25.375 19.613281 -24.671875 21.1875 -23.265625 C 22.757812 -21.867188 23.546875 -19.921875 23.546875 -17.421875 C 23.546875 -15.523438 23.070312 -13.9375 22.125 -12.65625 C 21.175781 -11.375 19.800781 -10.476562 18 -9.96875 C 19.34375 -9.613281 20.421875 -8.691406 21.234375 -7.203125 L 23.046875 -3.953125 C 23.421875 -3.234375 23.59375 -2.550781 23.5625 -1.90625 C 23.53125 -1.257812 23.269531 -0.722656 22.78125 -0.296875 C 22.300781 0.117188 21.59375 0.328125 20.65625 0.328125 C 19.726562 0.328125 18.96875 0.140625 18.375 -0.234375 C 17.789062 -0.609375 17.269531 -1.210938 16.8125 -2.046875 L 13.53125 -8.0625 C 13.25 -8.59375 12.882812 -8.957031 12.4375 -9.15625 C 11.988281 -9.363281 11.476562 -9.46875 10.90625 -9.46875 L 8.921875 -9.46875 L 8.921875 -3.03125 C 8.921875 -1.945312 8.640625 -1.113281 8.078125 -0.53125 C 7.515625 0.0390625 6.691406 0.328125 5.609375 0.328125 Z M 8.921875 -14.140625 L 13.3125 -14.140625 C 15.9375 -14.140625 17.25 -15.175781 17.25 -17.25 C 17.25 -19.28125 15.9375 -20.296875 13.3125 -20.296875 L 8.921875 -20.296875 Z M 8.921875 -14.140625 "/></g></g></g><g fill="#f39800" fill-opacity="1"><g transform="translate(285.204503, 257.387342)"><g><path d="M 5.765625 0 C 3.453125 0 2.296875 -1.140625 2.296875 -3.421875 L 2.296875 -21.953125 C 2.296875 -24.234375 3.453125 -25.375 5.765625 -25.375 L 17.96875 -25.375 C 19.695312 -25.375 20.5625 -24.535156 20.5625 -22.859375 C 20.5625 -21.128906 19.695312 -20.265625 17.96875 -20.265625 L 8.640625 -20.265625 L 8.640625 -15.4375 L 17.171875 -15.4375 C 18.898438 -15.4375 19.765625 -14.585938 19.765625 -12.890625 C 19.765625 -11.179688 18.898438 -10.328125 17.171875 -10.328125 L 8.640625 -10.328125 L 8.640625 -5.109375 L 17.96875 -5.109375 C 19.695312 -5.109375 20.5625 -4.257812 20.5625 -2.5625 C 20.5625 -0.851562 19.695312 0 17.96875 0 Z M 5.765625 0 "/></g></g></g><g clip-path="url(#b85d4aa779)"><path fill="#ffffff" d="M 194.484375 119.167969 C 194.484375 109.304688 202.492188 101.292969 212.355469 101.292969 C 222.21875 101.292969 230.226562 109.304688 230.226562 119.167969 L 237.847656 119.167969 C 237.847656 105.082031 226.4375 93.667969 212.355469 93.667969 C 198.273438 93.667969 186.902344 105.082031 186.902344 119.167969 Z M 194.484375 119.167969 " fill-opacity="1" fill-rule="nonzero"/></g><g clip-path="url(#2a171b3f9e)"><path fill="#f39800" d="M 231.230469 130.148438 C 230.816406 130.148438 230.40625 130.109375 230.003906 130.027344 C 229.597656 129.949219 229.207031 129.828125 228.824219 129.671875 C 228.445312 129.515625 228.082031 129.320312 227.738281 129.09375 C 227.394531 128.863281 227.078125 128.605469 226.789062 128.316406 C 226.496094 128.023438 226.234375 127.707031 226.007812 127.367188 C 225.777344 127.023438 225.582031 126.664062 225.425781 126.28125 C 225.269531 125.902344 225.148438 125.511719 225.066406 125.109375 C 224.988281 124.703125 224.949219 124.296875 224.949219 123.886719 L 224.949219 111.363281 C 224.949219 110.539062 224.867188 109.722656 224.707031 108.917969 C 224.546875 108.113281 224.308594 107.328125 223.992188 106.570312 C 223.675781 105.808594 223.289062 105.085938 222.828125 104.402344 C 222.371094 103.71875 221.851562 103.085938 221.269531 102.503906 C 220.683594 101.921875 220.050781 101.402344 219.363281 100.949219 C 218.679688 100.492188 217.953125 100.105469 217.191406 99.789062 C 216.429688 99.476562 215.644531 99.238281 214.835938 99.078125 C 214.027344 98.917969 213.210938 98.835938 212.382812 98.835938 C 211.558594 98.835938 210.742188 98.917969 209.933594 99.078125 C 209.125 99.238281 208.339844 99.476562 207.578125 99.789062 C 206.8125 100.105469 206.089844 100.492188 205.40625 100.949219 C 204.71875 101.402344 204.085938 101.921875 203.5 102.503906 C 202.917969 103.085938 202.398438 103.71875 201.9375 104.402344 C 201.480469 105.085938 201.09375 105.808594 200.777344 106.570312 C 200.460938 107.328125 200.222656 108.113281 200.0625 108.917969 C 199.902344 109.722656 199.820312 110.539062 199.820312 111.363281 L 199.820312 123.886719 C 199.820312 124.296875 199.78125 124.703125 199.699219 125.109375 C 199.621094 125.511719 199.5 125.902344 199.34375 126.28125 C 199.183594 126.664062 198.992188 127.023438 198.761719 127.367188 C 198.535156 127.707031 198.273438 128.023438 197.980469 128.316406 C 197.691406 128.605469 197.371094 128.863281 197.03125 129.09375 C 196.6875 129.320312 196.324219 129.515625 195.945312 129.671875 C 195.5625 129.828125 195.167969 129.949219 194.765625 130.027344 C 194.359375 130.109375 193.953125 130.148438 193.539062 130.148438 C 193.128906 130.148438 192.71875 130.109375 192.3125 130.027344 C 191.910156 129.949219 191.515625 129.828125 191.136719 129.671875 C 190.753906 129.515625 190.394531 129.320312 190.050781 129.09375 C 189.707031 128.863281 189.390625 128.605469 189.097656 128.316406 C 188.804688 128.023438 188.546875 127.707031 188.316406 127.367188 C 188.085938 127.023438 187.894531 126.664062 187.734375 126.28125 C 187.578125 125.902344 187.460938 125.511719 187.378906 125.109375 C 187.296875 124.703125 187.257812 124.296875 187.257812 123.886719 L 187.257812 111.363281 C 187.257812 110.542969 187.296875 109.722656 187.378906 108.90625 C 187.460938 108.089844 187.582031 107.277344 187.742188 106.472656 C 187.902344 105.667969 188.101562 104.875 188.339844 104.089844 C 188.578125 103.304688 188.855469 102.535156 189.171875 101.773438 C 189.484375 101.015625 189.835938 100.277344 190.226562 99.554688 C 190.613281 98.828125 191.035156 98.125 191.492188 97.445312 C 191.949219 96.761719 192.4375 96.105469 192.960938 95.46875 C 193.484375 94.835938 194.035156 94.230469 194.617188 93.648438 C 195.199219 93.066406 195.808594 92.519531 196.445312 91.996094 C 197.082031 91.476562 197.742188 90.988281 198.425781 90.53125 C 199.109375 90.078125 199.8125 89.65625 200.539062 89.269531 C 201.265625 88.882812 202.007812 88.53125 202.769531 88.21875 C 203.527344 87.90625 204.304688 87.628906 205.089844 87.390625 C 205.878906 87.152344 206.675781 86.953125 207.480469 86.792969 C 208.289062 86.632812 209.101562 86.511719 209.921875 86.433594 C 210.742188 86.351562 211.5625 86.3125 212.382812 86.3125 C 213.207031 86.3125 214.027344 86.351562 214.847656 86.433594 C 215.664062 86.511719 216.480469 86.632812 217.285156 86.792969 C 218.09375 86.953125 218.890625 87.152344 219.679688 87.390625 C 220.464844 87.628906 221.238281 87.90625 222 88.21875 C 222.761719 88.53125 223.503906 88.882812 224.230469 89.269531 C 224.953125 89.65625 225.660156 90.078125 226.34375 90.53125 C 227.027344 90.988281 227.6875 91.476562 228.324219 91.996094 C 228.960938 92.519531 229.570312 93.066406 230.152344 93.648438 C 230.734375 94.230469 231.285156 94.835938 231.808594 95.46875 C 232.328125 96.105469 232.820312 96.761719 233.277344 97.445312 C 233.734375 98.125 234.15625 98.828125 234.542969 99.554688 C 234.929688 100.277344 235.28125 101.015625 235.597656 101.773438 C 235.914062 102.535156 236.191406 103.304688 236.429688 104.089844 C 236.667969 104.875 236.867188 105.667969 237.027344 106.472656 C 237.1875 107.277344 237.308594 108.089844 237.390625 108.90625 C 237.46875 109.722656 237.511719 110.542969 237.511719 111.363281 L 237.511719 123.886719 C 237.511719 124.296875 237.46875 124.703125 237.390625 125.109375 C 237.308594 125.511719 237.191406 125.902344 237.03125 126.28125 C 236.875 126.664062 236.679688 127.023438 236.453125 127.367188 C 236.222656 127.707031 235.960938 128.023438 235.671875 128.316406 C 235.378906 128.605469 235.0625 128.863281 234.71875 129.09375 C 234.375 129.320312 234.015625 129.515625 233.632812 129.671875 C 233.25 129.828125 232.859375 129.949219 232.453125 130.027344 C 232.050781 130.109375 231.640625 130.148438 231.230469 130.148438 Z M 231.230469 130.148438 " fill-opacity="1" fill-rule="nonzero"/></g><g clip-path="url(#1909fc9029)"><path fill="#f39800" d="M 256.78125 129.191406 C 256.71875 128.410156 256.585938 127.644531 256.378906 126.890625 C 256.171875 126.136719 255.898438 125.410156 255.554688 124.707031 C 255.214844 124.003906 254.808594 123.339844 254.34375 122.710938 C 253.875 122.082031 253.355469 121.503906 252.78125 120.972656 C 252.207031 120.441406 251.585938 119.96875 250.921875 119.554688 C 250.261719 119.136719 249.5625 118.785156 248.835938 118.5 C 248.105469 118.214844 247.355469 117.996094 246.585938 117.847656 C 245.816406 117.703125 245.039062 117.625 244.257812 117.625 L 180.511719 117.625 C 179.726562 117.625 178.953125 117.703125 178.183594 117.847656 C 177.414062 117.996094 176.664062 118.214844 175.933594 118.5 C 175.203125 118.785156 174.507812 119.136719 173.84375 119.554688 C 173.183594 119.96875 172.5625 120.441406 171.988281 120.972656 C 171.414062 121.503906 170.890625 122.082031 170.425781 122.710938 C 169.957031 123.339844 169.554688 124.003906 169.210938 124.707031 C 168.871094 125.410156 168.597656 126.136719 168.390625 126.890625 C 168.183594 127.644531 168.050781 128.410156 167.984375 129.191406 L 163.707031 184.589844 C 163.640625 185.445312 163.621094 186.304688 163.644531 187.167969 C 163.664062 188.027344 163.734375 188.882812 163.84375 189.738281 C 163.953125 190.589844 164.109375 191.4375 164.308594 192.273438 C 164.507812 193.109375 164.746094 193.9375 165.03125 194.75 C 165.316406 195.5625 165.640625 196.359375 166.007812 197.136719 C 166.371094 197.917969 166.777344 198.675781 167.222656 199.414062 C 167.667969 200.148438 168.148438 200.863281 168.667969 201.550781 C 169.183594 202.238281 169.738281 202.898438 170.324219 203.53125 C 170.910156 204.164062 171.527344 204.761719 172.175781 205.328125 C 172.824219 205.898438 173.5 206.429688 174.203125 206.929688 C 174.910156 207.429688 175.636719 207.890625 176.386719 208.3125 C 177.136719 208.738281 177.910156 209.121094 178.699219 209.464844 C 179.492188 209.808594 180.296875 210.113281 181.121094 210.375 C 181.941406 210.636719 182.777344 210.855469 183.621094 211.03125 C 184.464844 211.207031 185.316406 211.339844 186.175781 211.429688 C 187.035156 211.515625 187.894531 211.5625 188.757812 211.5625 L 236.007812 211.5625 C 236.871094 211.5625 237.734375 211.515625 238.59375 211.429688 C 239.449219 211.339844 240.300781 211.207031 241.148438 211.03125 C 241.992188 210.855469 242.824219 210.636719 243.648438 210.375 C 244.46875 210.113281 245.277344 209.808594 246.066406 209.464844 C 246.859375 209.121094 247.628906 208.738281 248.382812 208.3125 C 249.132812 207.890625 249.859375 207.429688 250.5625 206.929688 C 251.265625 206.429688 251.945312 205.898438 252.59375 205.328125 C 253.242188 204.761719 253.859375 204.164062 254.445312 203.53125 C 255.03125 202.898438 255.582031 202.238281 256.101562 201.550781 C 256.621094 200.863281 257.101562 200.148438 257.546875 199.414062 C 257.992188 198.675781 258.394531 197.917969 258.761719 197.136719 C 259.128906 196.359375 259.453125 195.5625 259.738281 194.75 C 260.019531 193.9375 260.261719 193.109375 260.460938 192.273438 C 260.660156 191.4375 260.8125 190.589844 260.925781 189.738281 C 261.035156 188.882812 261.101562 188.027344 261.125 187.167969 C 261.148438 186.304688 261.125 185.445312 261.058594 184.589844 Z M 256.78125 129.191406 " fill-opacity="1" fill-rule="nonzero"/></g><g clip-path="url(#9c461d89fb)"><path fill="#ffffff" d="M 144.378906 131.835938 C 144.378906 121.96875 152.390625 113.957031 162.25 113.957031 C 172.113281 113.957031 180.125 121.96875 180.125 131.835938 L 187.746094 131.835938 C 187.746094 117.75 176.335938 106.335938 162.25 106.335938 C 148.167969 106.335938 136.800781 117.75 136.800781 131.835938 Z M 144.378906 131.835938 " fill-opacity="1" fill-rule="nonzero"/></g><g clip-path="url(#b2236344d7)"><path fill="#f39800" d="M 181.125 142.816406 C 180.714844 142.816406 180.304688 142.777344 179.898438 142.695312 C 179.496094 142.617188 179.101562 142.496094 178.722656 142.339844 C 178.339844 142.183594 177.980469 141.988281 177.636719 141.761719 C 177.292969 141.53125 176.976562 141.273438 176.683594 140.980469 C 176.390625 140.691406 176.132812 140.375 175.902344 140.035156 C 175.671875 139.691406 175.480469 139.332031 175.320312 138.949219 C 175.164062 138.570312 175.046875 138.179688 174.964844 137.777344 C 174.882812 137.371094 174.84375 136.964844 174.84375 136.554688 L 174.84375 124.027344 C 174.84375 123.207031 174.761719 122.390625 174.601562 121.585938 C 174.441406 120.777344 174.203125 119.996094 173.886719 119.234375 C 173.570312 118.476562 173.183594 117.753906 172.726562 117.070312 C 172.269531 116.386719 171.746094 115.753906 171.164062 115.171875 C 170.582031 114.589844 169.945312 114.070312 169.261719 113.613281 C 168.574219 113.15625 167.851562 112.773438 167.089844 112.457031 C 166.328125 112.144531 165.539062 111.90625 164.730469 111.746094 C 163.921875 111.585938 163.105469 111.503906 162.28125 111.503906 C 161.457031 111.503906 160.640625 111.585938 159.828125 111.746094 C 159.019531 111.90625 158.234375 112.144531 157.472656 112.457031 C 156.710938 112.773438 155.988281 113.15625 155.300781 113.613281 C 154.617188 114.070312 153.980469 114.589844 153.398438 115.171875 C 152.8125 115.753906 152.292969 116.386719 151.835938 117.070312 C 151.375 117.753906 150.988281 118.476562 150.675781 119.234375 C 150.359375 119.996094 150.121094 120.777344 149.960938 121.585938 C 149.796875 122.390625 149.71875 123.207031 149.71875 124.027344 L 149.71875 136.554688 C 149.71875 136.964844 149.675781 137.371094 149.597656 137.777344 C 149.515625 138.179688 149.398438 138.570312 149.238281 138.949219 C 149.082031 139.332031 148.886719 139.691406 148.660156 140.035156 C 148.429688 140.375 148.167969 140.691406 147.878906 140.980469 C 147.585938 141.273438 147.269531 141.53125 146.925781 141.761719 C 146.582031 141.988281 146.222656 142.183594 145.839844 142.339844 C 145.460938 142.496094 145.066406 142.617188 144.660156 142.695312 C 144.257812 142.777344 143.847656 142.816406 143.4375 142.816406 C 143.023438 142.816406 142.617188 142.777344 142.210938 142.695312 C 141.804688 142.617188 141.414062 142.496094 141.03125 142.339844 C 140.652344 142.183594 140.289062 141.988281 139.945312 141.761719 C 139.601562 141.53125 139.285156 141.273438 138.996094 140.980469 C 138.703125 140.691406 138.441406 140.375 138.214844 140.035156 C 137.984375 139.691406 137.789062 139.332031 137.632812 138.949219 C 137.476562 138.570312 137.355469 138.179688 137.277344 137.777344 C 137.195312 137.371094 137.15625 136.964844 137.15625 136.554688 L 137.15625 124.027344 C 137.15625 123.207031 137.195312 122.390625 137.277344 121.574219 C 137.355469 120.757812 137.476562 119.945312 137.636719 119.140625 C 137.796875 118.335938 137.996094 117.542969 138.238281 116.757812 C 138.476562 115.972656 138.753906 115.199219 139.066406 114.441406 C 139.382812 113.683594 139.734375 112.945312 140.121094 112.21875 C 140.507812 111.496094 140.933594 110.792969 141.390625 110.113281 C 141.847656 109.429688 142.335938 108.773438 142.859375 108.136719 C 143.378906 107.503906 143.933594 106.894531 144.515625 106.316406 C 145.097656 105.734375 145.703125 105.183594 146.339844 104.664062 C 146.976562 104.144531 147.636719 103.65625 148.320312 103.199219 C 149.003906 102.746094 149.710938 102.324219 150.4375 101.9375 C 151.164062 101.550781 151.90625 101.199219 152.664062 100.886719 C 153.425781 100.570312 154.199219 100.296875 154.988281 100.058594 C 155.773438 99.820312 156.570312 99.621094 157.378906 99.460938 C 158.1875 99.300781 159 99.179688 159.816406 99.097656 C 160.636719 99.019531 161.457031 98.980469 162.28125 98.980469 C 163.105469 98.980469 163.925781 99.019531 164.742188 99.097656 C 165.5625 99.179688 166.375 99.300781 167.183594 99.460938 C 167.988281 99.621094 168.789062 99.820312 169.574219 100.058594 C 170.363281 100.296875 171.136719 100.570312 171.894531 100.886719 C 172.65625 101.199219 173.398438 101.550781 174.125 101.9375 C 174.851562 102.324219 175.554688 102.746094 176.242188 103.199219 C 176.925781 103.65625 177.585938 104.144531 178.222656 104.664062 C 178.855469 105.183594 179.464844 105.734375 180.046875 106.316406 C 180.628906 106.894531 181.183594 107.503906 181.703125 108.136719 C 182.226562 108.773438 182.714844 109.429688 183.171875 110.113281 C 183.628906 110.792969 184.050781 111.496094 184.441406 112.21875 C 184.828125 112.945312 185.179688 113.683594 185.496094 114.441406 C 185.808594 115.199219 186.085938 115.972656 186.324219 116.757812 C 186.5625 117.542969 186.765625 118.335938 186.925781 119.140625 C 187.085938 119.945312 187.207031 120.757812 187.285156 121.574219 C 187.367188 122.390625 187.40625 123.207031 187.40625 124.027344 L 187.40625 136.554688 C 187.40625 136.964844 187.367188 137.371094 187.285156 137.777344 C 187.207031 138.179688 187.085938 138.570312 186.929688 138.949219 C 186.769531 139.332031 186.578125 139.691406 186.347656 140.035156 C 186.121094 140.375 185.859375 140.691406 185.566406 140.980469 C 185.277344 141.273438 184.957031 141.53125 184.617188 141.761719 C 184.273438 141.988281 183.910156 142.183594 183.53125 142.339844 C 183.148438 142.496094 182.753906 142.617188 182.351562 142.695312 C 181.945312 142.777344 181.539062 142.816406 181.125 142.816406 Z M 181.125 142.816406 " fill-opacity="1" fill-rule="nonzero"/></g><g clip-path="url(#ee3fce781c)"><path fill="#f39800" d="M 206.679688 141.859375 C 206.617188 141.078125 206.480469 140.3125 206.277344 139.558594 C 206.070312 138.804688 205.796875 138.078125 205.453125 137.375 C 205.109375 136.671875 204.707031 136.007812 204.238281 135.378906 C 203.773438 134.75 203.253906 134.171875 202.675781 133.640625 C 202.101562 133.109375 201.484375 132.636719 200.820312 132.222656 C 200.15625 131.804688 199.460938 131.453125 198.730469 131.167969 C 198.003906 130.878906 197.253906 130.664062 196.484375 130.515625 C 195.714844 130.371094 194.9375 130.292969 194.152344 130.292969 L 130.410156 130.292969 C 129.625 130.292969 128.847656 130.371094 128.078125 130.515625 C 127.308594 130.664062 126.558594 130.878906 125.832031 131.167969 C 125.101562 131.453125 124.40625 131.804688 123.742188 132.222656 C 123.078125 132.636719 122.460938 133.109375 121.882812 133.640625 C 121.308594 134.171875 120.789062 134.75 120.320312 135.378906 C 119.855469 136.007812 119.449219 136.671875 119.109375 137.375 C 118.765625 138.078125 118.492188 138.804688 118.285156 139.558594 C 118.082031 140.3125 117.945312 141.078125 117.882812 141.859375 L 113.605469 197.257812 C 113.539062 198.113281 113.515625 198.972656 113.539062 199.832031 C 113.5625 200.695312 113.628906 201.550781 113.742188 202.40625 C 113.851562 203.257812 114.007812 204.101562 114.203125 204.941406 C 114.402344 205.777344 114.644531 206.605469 114.929688 207.417969 C 115.210938 208.230469 115.539062 209.023438 115.902344 209.804688 C 116.269531 210.582031 116.675781 211.34375 117.121094 212.078125 C 117.5625 212.816406 118.046875 213.53125 118.5625 214.21875 C 119.082031 214.90625 119.632812 215.566406 120.222656 216.199219 C 120.808594 216.828125 121.425781 217.429688 122.074219 217.996094 C 122.722656 218.566406 123.398438 219.097656 124.101562 219.597656 C 124.804688 220.097656 125.53125 220.558594 126.285156 220.980469 C 127.035156 221.40625 127.804688 221.789062 128.597656 222.132812 C 129.386719 222.476562 130.195312 222.78125 131.015625 223.042969 C 131.839844 223.304688 132.671875 223.523438 133.519531 223.699219 C 134.363281 223.875 135.214844 224.007812 136.074219 224.097656 C 136.933594 224.183594 137.792969 224.230469 138.65625 224.230469 L 185.90625 224.230469 C 186.769531 224.230469 187.628906 224.183594 188.488281 224.097656 C 189.347656 224.007812 190.199219 223.875 191.042969 223.699219 C 191.890625 223.523438 192.722656 223.304688 193.542969 223.042969 C 194.367188 222.78125 195.175781 222.476562 195.964844 222.132812 C 196.753906 221.789062 197.527344 221.40625 198.277344 220.980469 C 199.03125 220.558594 199.757812 220.097656 200.460938 219.597656 C 201.164062 219.097656 201.839844 218.566406 202.488281 217.996094 C 203.136719 217.429688 203.753906 216.828125 204.339844 216.199219 C 204.925781 215.566406 205.480469 214.90625 206 214.21875 C 206.515625 213.53125 206.996094 212.816406 207.441406 212.078125 C 207.886719 211.34375 208.292969 210.582031 208.660156 209.804688 C 209.023438 209.023438 209.347656 208.230469 209.632812 207.417969 C 209.917969 206.605469 210.160156 205.777344 210.355469 204.941406 C 210.554688 204.101562 210.710938 203.257812 210.820312 202.40625 C 210.933594 201.550781 211 200.695312 211.023438 199.832031 C 211.042969 198.972656 211.023438 198.113281 210.957031 197.257812 Z M 206.679688 141.859375 " fill-opacity="1" fill-rule="nonzero"/></g><g fill="#ffffff" fill-opacity="1"><g transform="translate(136.208184, 200.541359)"><g><path d="M 30.265625 -46.75 C 36.492188 -46.75 41.320312 -45.390625 44.75 -42.671875 C 48.175781 -39.960938 49.890625 -36.160156 49.890625 -31.265625 C 49.890625 -27.335938 48.921875 -23.882812 46.984375 -20.90625 C 45.046875 -17.925781 42.285156 -15.609375 38.703125 -13.953125 C 35.117188 -12.304688 30.96875 -11.484375 26.25 -11.484375 L 18.171875 -11.484375 L 15.890625 0 L 0.140625 0 L 9.484375 -46.75 Z M 27.046875 -23.640625 C 29.234375 -23.640625 30.925781 -24.1875 32.125 -25.28125 C 33.332031 -26.375 33.9375 -27.898438 33.9375 -29.859375 C 33.9375 -33.015625 31.972656 -34.59375 28.046875 -34.59375 L 22.78125 -34.59375 L 20.578125 -23.640625 Z M 27.046875 -23.640625 "/></g></g></g><g fill="#ffffff" fill-opacity="1"><g transform="translate(186.311505, 187.87386)"><g><path d="M 18.703125 1.0625 C 14.648438 1.0625 10.84375 0.628906 7.28125 -0.234375 C 3.71875 -1.097656 0.78125 -2.242188 -1.53125 -3.671875 L 4.546875 -15.296875 C 9.578125 -12.398438 14.832031 -10.953125 20.3125 -10.953125 C 22.3125 -10.953125 23.84375 -11.195312 24.90625 -11.6875 C 25.976562 -12.175781 26.515625 -12.84375 26.515625 -13.6875 C 26.515625 -14.488281 25.96875 -15.132812 24.875 -15.625 C 23.789062 -16.113281 22.066406 -16.648438 19.703125 -17.234375 C 16.585938 -18.035156 14.003906 -18.847656 11.953125 -19.671875 C 9.910156 -20.492188 8.117188 -21.757812 6.578125 -23.46875 C 5.046875 -25.1875 4.28125 -27.453125 4.28125 -30.265625 C 4.28125 -33.773438 5.222656 -36.851562 7.109375 -39.5 C 9.003906 -42.15625 11.734375 -44.207031 15.296875 -45.65625 C 18.859375 -47.101562 23.066406 -47.828125 27.921875 -47.828125 C 31.390625 -47.828125 34.628906 -47.476562 37.640625 -46.78125 C 40.648438 -46.09375 43.242188 -45.101562 45.421875 -43.8125 L 39.75 -32.328125 C 37.914062 -33.484375 35.894531 -34.347656 33.6875 -34.921875 C 31.488281 -35.503906 29.234375 -35.796875 26.921875 -35.796875 C 24.734375 -35.796875 23.035156 -35.484375 21.828125 -34.859375 C 20.628906 -34.242188 20.03125 -33.507812 20.03125 -32.65625 C 20.03125 -31.8125 20.578125 -31.144531 21.671875 -30.65625 C 22.765625 -30.164062 24.554688 -29.632812 27.046875 -29.0625 C 30.078125 -28.34375 32.628906 -27.582031 34.703125 -26.78125 C 36.773438 -25.976562 38.566406 -24.726562 40.078125 -23.03125 C 41.585938 -21.34375 42.34375 -19.117188 42.34375 -16.359375 C 42.34375 -12.890625 41.382812 -9.835938 39.46875 -7.203125 C 37.5625 -4.578125 34.828125 -2.539062 31.265625 -1.09375 C 27.703125 0.34375 23.515625 1.0625 18.703125 1.0625 Z M 18.703125 1.0625 "/></g></g></g></svg>